<svg version="1.1" id="Layer_1" xmlns="http://www.w3.org/2000/svg" xmlns:xlink="http://www.w3.org/1999/xlink" x="0px" y="0px"
	 width="100%" viewBox="0 0 1310 272" enable-background="new 0 0 1310 272" xml:space="preserve">
<path fill="#000000" opacity="1.000000" stroke="none" 
	d="
M1311.000000,256.000000 
	C1311.000000,261.665924 1311.000000,267.331818 1311.000000,272.998291 
	C874.392151,272.998871 437.784302,272.998871 1.088231,272.998871 
	C1.088231,182.404282 1.088231,91.808456 1.088231,1.106316 
	C437.666656,1.106316 874.333313,1.106316 1311.000000,1.109708 
	C1311.000000,82.768936 1311.000000,164.424759 1310.707520,246.827362 
	C1309.047852,245.987061 1307.791626,244.285324 1306.293335,242.833466 
	C1300.859253,237.568069 1295.728882,237.753342 1290.213013,243.298096 
	C1285.644531,247.890518 1285.550659,254.900040 1289.996338,259.482239 
	C1295.461060,265.114716 1303.653687,264.383209 1308.686035,257.873413 
	C1309.276733,257.109314 1310.220215,256.617859 1311.000000,256.000000 
M660.718750,245.028336 
	C661.312500,244.373444 661.825989,243.616165 662.511841,243.078827 
	C675.507935,232.896667 682.894592,219.101379 686.877075,203.531097 
	C690.145447,190.752823 692.073486,177.661362 689.975891,164.379913 
	C689.017334,158.310623 688.699463,151.929413 686.488098,146.321747 
	C683.684326,139.211807 680.018433,132.141235 675.317993,126.158630 
	C669.875793,119.231926 663.855286,111.828575 656.400940,107.607307 
	C640.789856,98.766846 623.463440,94.644783 605.230347,94.942352 
	C588.572388,95.214218 571.906616,95.000000 555.244263,95.000000 
	C546.958313,95.000000 538.672363,95.000000 530.500000,95.000000 
	C530.500000,151.800217 530.500000,208.199783 530.500000,265.000000 
	C543.594971,265.000000 556.809692,265.205994 570.015381,264.947388 
	C586.185059,264.630707 602.339661,265.788361 618.529114,263.205139 
	C634.072388,260.725067 647.905273,255.256668 660.718750,245.028336 
M782.800537,98.029289 
	C772.783142,102.249191 763.044861,106.992920 755.017151,114.509392 
	C741.216553,127.431183 732.888489,143.065170 729.761475,161.957382 
	C727.333496,176.626678 726.923889,191.211853 730.421753,205.370087 
	C734.906311,223.522064 744.834351,238.422882 760.674072,249.482086 
	C775.863281,260.087128 792.588501,265.656982 810.636658,266.754883 
	C821.547791,267.418610 832.717102,266.424713 843.571655,264.826019 
	C859.817139,262.433289 874.143372,255.213547 886.336670,244.121155 
	C905.244446,226.920685 912.620361,204.586411 913.839355,179.894409 
	C914.206726,172.452774 913.427246,164.742508 911.780334,157.470749 
	C909.994751,149.587051 907.428772,141.629883 903.698425,134.491043 
	C896.768860,121.230125 886.175781,111.416412 872.859436,104.144028 
	C859.056396,96.605888 844.247375,93.430290 828.968628,92.114845 
	C813.523926,90.785103 798.390076,93.334648 782.800537,98.029289 
M959.000061,213.333740 
	C958.666016,222.247681 958.397217,231.164688 957.978699,240.074661 
	C957.593140,248.282700 957.046753,256.483185 956.582031,264.499268 
	C968.798950,264.499268 980.204529,264.499268 991.500000,264.499268 
	C991.500000,237.817627 991.500000,210.960266 991.500000,182.516571 
	C994.214600,184.438904 996.648376,185.402756 997.918884,187.192474 
	C1003.680725,195.308350 1008.979736,203.751984 1014.713013,211.889099 
	C1018.572205,217.366516 1023.216492,222.304825 1026.913330,227.879700 
	C1034.447998,239.241867 1041.499268,250.924103 1048.982544,262.321564 
	C1049.886230,263.697968 1052.214478,264.852417 1053.905396,264.883911 
	C1065.703125,265.103546 1077.506958,265.009186 1089.308838,264.986053 
	C1090.516479,264.983704 1091.723999,264.787689 1092.955200,264.679474 
	C1072.439453,236.726700 1052.160645,209.096710 1031.719116,181.244995 
	C1037.106567,179.434402 1041.619873,177.886948 1046.153076,176.400635 
	C1055.037720,173.487640 1062.328735,167.450470 1067.363770,160.444153 
	C1074.318604,150.766220 1075.674805,138.588791 1073.668091,126.766083 
	C1072.794312,121.617859 1070.360840,116.310410 1067.293457,112.039185 
	C1058.621094,99.963234 1046.052368,95.079842 1031.498413,95.023811 
	C1008.345764,94.934669 985.192444,95.000000 962.039429,95.000000 
	C960.417480,95.000000 958.795532,95.000000 957.041443,95.000000 
	C957.719666,103.802673 958.851929,112.107552 958.911987,120.420166 
	C959.133484,151.067184 959.000000,181.716751 959.000061,213.333740 
M322.000000,244.346359 
	C321.346771,249.835953 320.685272,255.324570 320.044098,260.815552 
	C319.755280,263.288971 320.225922,265.068878 323.346344,265.026031 
	C329.818787,264.937164 336.293335,264.999207 341.710938,264.999207 
	C340.960999,226.237274 340.217865,187.826813 339.456787,148.490402 
	C344.159546,152.600067 347.888855,155.584473 351.305145,158.892181 
	C365.922485,173.044876 380.491333,187.248444 394.981079,201.531616 
	C399.701996,206.185196 404.043152,211.221756 408.705719,215.937088 
	C424.113068,231.518829 439.686279,246.938568 454.930389,262.677582 
	C457.206207,265.027344 459.211945,266.220642 462.320526,266.025238 
	C464.426178,265.892883 466.546906,266.000000 468.533813,266.000000 
	C469.075287,208.828537 469.612610,152.096130 470.151306,95.215378 
	C463.503265,95.215378 456.432159,95.215378 449.000000,95.215378 
	C449.000000,97.051102 448.936432,98.679893 449.009949,100.302475 
	C449.659485,114.637253 450.593109,128.964874 450.926880,143.306625 
	C451.260193,157.627975 450.990143,171.963165 451.014832,186.292236 
	C451.017365,187.765564 451.263062,189.236786 451.332764,190.711960 
	C451.645905,197.340729 451.936249,203.970596 452.234833,210.600067 
	C451.775208,210.768753 451.315582,210.937439 450.855988,211.106110 
	C439.741730,200.408493 428.603577,189.735596 417.522369,179.003845 
	C411.042511,172.728333 404.658295,166.354126 398.222870,160.032669 
	C387.170563,149.176071 375.830139,138.594772 365.141205,127.391716 
	C355.888092,117.693535 347.410675,107.257660 338.473083,97.252647 
	C337.488556,96.150520 335.773956,95.222763 334.325958,95.105782 
	C330.602417,94.804955 326.838409,95.005203 322.000000,95.005203 
	C322.000000,144.924652 322.000000,194.155380 322.000000,244.346359 
M40.000004,195.722473 
	C39.894859,193.545135 39.789719,191.367783 39.723671,190.000000 
	C46.886986,190.000000 54.111687,190.297043 61.302891,189.932816 
	C73.126282,189.333954 84.432571,186.861176 95.060776,181.086121 
	C114.913063,170.298935 123.612480,144.717712 116.236755,123.125725 
	C110.448692,106.181473 91.698204,95.370659 76.267418,95.098587 
	C54.279282,94.710899 32.279209,94.995712 10.284250,95.009995 
	C8.866933,95.010918 7.449708,95.155289 6.320121,95.217163 
	C6.320121,152.128296 6.320121,208.526581 6.320121,264.499603 
	C18.032570,264.499603 29.428528,264.499603 40.000000,264.499603 
	C40.000000,241.798386 40.000000,219.234604 40.000004,195.722473 
M1247.562500,265.000000 
	C1256.989746,265.000000 1266.417114,265.000000 1276.313232,265.000000 
	C1274.925415,261.291046 1273.960327,258.092560 1272.567139,255.092941 
	C1265.495239,239.867249 1258.090088,224.792633 1251.230225,209.473221 
	C1244.235474,193.852234 1237.511108,178.100586 1231.078613,162.239777 
	C1222.179565,140.297043 1213.617310,118.216957 1205.038940,96.145866 
	C1203.870850,93.140335 1202.415405,91.655739 1198.977417,91.923904 
	C1194.849365,92.245903 1190.677002,92.000000 1187.019043,92.000000 
	C1165.433472,151.215912 1136.918579,207.007828 1112.002319,264.990936 
	C1119.593994,264.990936 1127.004272,265.071350 1134.407715,264.884521 
	C1135.288086,264.862305 1136.562500,263.540466 1136.928101,262.552338 
	C1143.029785,246.063736 1148.975220,229.517242 1155.129028,213.048477 
	C1155.489258,212.084167 1157.318970,211.094040 1158.471313,211.086517 
	C1177.135986,210.964859 1195.802002,210.965225 1214.466797,211.084274 
	C1215.637939,211.091736 1217.480347,212.033524 1217.866577,212.998550 
	C1223.678711,227.520676 1229.428711,242.071045 1234.913208,256.719635 
	C1237.980713,264.913055 1237.748535,265.000000 1247.562500,265.000000 
M148.451096,252.035828 
	C153.300598,239.504364 158.262756,227.014420 162.906967,214.407333 
	C163.865738,211.804703 164.952255,210.922958 167.685959,210.940475 
	C185.679413,211.055847 203.673950,211.009659 221.668106,210.987930 
	C223.940704,210.985199 225.158005,211.268356 226.188110,214.080536 
	C231.844940,229.523483 238.115387,244.740448 243.963074,260.115662 
	C245.260468,263.526825 246.576996,265.574158 250.802094,265.114075 
	C255.412582,264.612030 260.119995,265.000000 264.785156,265.000000 
	C271.159821,265.000000 277.534485,265.000000 284.285431,265.000000 
	C283.671417,262.679138 283.485138,261.041077 282.825104,259.623657 
	C275.601074,244.110443 268.088135,228.728119 261.084869,213.116806 
	C253.893478,197.086136 246.897034,180.955170 240.325729,164.662216 
	C230.939728,141.390533 222.048935,117.919327 212.805496,94.589264 
	C212.355042,93.452316 210.593536,92.193558 209.372162,92.117203 
	C204.734070,91.827240 200.067047,92.000397 195.480377,92.000397 
	C173.636566,150.973572 145.363266,206.938202 120.363617,264.846527 
	C129.047714,264.846527 136.841980,264.846527 144.598022,264.846527 
	C145.769821,260.719025 146.901505,256.732819 148.451096,252.035828 
M780.000061,31.442671 
	C779.238037,36.173176 778.476074,40.903679 777.655884,45.995483 
	C775.554504,45.995483 773.467834,45.995483 771.020630,45.995483 
	C771.020630,48.109627 771.020630,49.855389 771.020630,52.000736 
	C767.204773,52.000736 763.729370,51.821003 760.291687,52.102142 
	C759.150574,52.195469 758.106323,53.473099 757.017761,54.209286 
	C757.923096,55.139008 758.780273,56.123131 759.748840,56.981495 
	C760.542480,57.684811 761.468750,58.238400 762.336243,58.858372 
	C762.158813,59.272762 761.981323,59.687153 761.803894,60.101543 
	C758.554077,60.101543 755.304321,60.101543 750.929260,60.101543 
	C753.619446,65.239189 755.871155,69.539253 758.160645,73.911568 
	C756.347290,75.046684 754.115906,76.443504 751.807922,77.888283 
	C754.645630,80.305382 884.509033,81.560341 899.336914,79.298126 
	C897.442322,77.224007 896.362854,75.343742 894.739197,74.387131 
	C888.131104,70.493828 886.300049,67.174446 888.042725,60.002502 
	C888.902771,56.462723 890.242737,52.985313 891.789856,49.678135 
	C894.924500,42.977501 898.609558,36.523533 901.507935,29.729094 
	C902.496277,27.412333 903.625427,23.991364 899.684265,22.183210 
	C898.852966,21.801802 898.133789,20.297029 898.075623,19.269535 
	C897.878174,15.782723 897.768860,12.258338 898.061523,8.785018 
	C898.389404,4.893260 896.267029,3.508796 893.128296,4.090722 
	C886.350098,5.347425 879.664185,7.102514 872.042480,8.860892 
	C876.048706,11.262691 878.998901,14.192184 882.326477,14.713754 
	C885.964905,15.284032 889.952332,13.627742 893.851318,12.930509 
	C893.851318,15.947438 893.851318,18.226204 893.851318,20.201822 
	C873.222351,22.312202 854.156128,29.280434 835.496399,36.702042 
	C834.992615,27.489086 834.651428,18.434427 833.945007,9.408345 
	C833.533813,4.153208 832.198669,3.427335 827.044128,5.064474 
	C824.793091,5.779420 822.369324,6.570652 820.610474,8.032782 
	C818.996948,9.374095 817.202209,11.641034 817.156799,13.540066 
	C816.854309,26.192225 816.962830,38.855350 817.050476,51.514133 
	C817.060608,52.979057 817.764038,54.439182 818.191406,56.075073 
	C814.617798,57.339951 810.913635,58.863377 807.075439,59.881168 
	C805.912842,60.189449 804.379272,59.098602 803.015625,58.648617 
	C804.138245,57.843273 805.260925,57.037933 806.822510,55.917709 
	C806.822510,55.198147 806.822510,53.783665 806.822510,51.991905 
	C802.227173,51.991905 797.793213,51.991905 793.002075,51.991905 
	C793.002075,49.888081 793.002075,48.131981 793.002075,45.841934 
	C790.442383,45.841934 788.242798,45.841934 786.064087,45.841934 
	C784.994934,37.467140 784.000122,29.675022 783.005310,21.882906 
	C782.219788,21.891712 781.434204,21.900518 780.648682,21.909325 
	C780.432434,24.776539 780.216187,27.643751 780.000061,31.442671 
M781.506470,85.000000 
	C821.982361,84.563805 862.483765,86.092079 903.095825,82.852119 
	C901.654053,81.638405 900.056091,81.041939 898.457458,81.040283 
	C850.519592,80.990753 802.581604,80.999985 754.643677,81.000076 
	C753.811401,81.000084 752.930115,80.829704 752.160706,81.049950 
	C751.389526,81.270714 750.730103,81.881828 750.021667,82.321869 
	C750.777588,82.880775 751.512268,83.892982 752.292664,83.929535 
	C761.694580,84.370003 771.103210,84.666191 781.506470,85.000000 
z"/>
<path fill="#FFFFFF" opacity="1.000000" stroke="none" 
	d="
M1311.000000,255.550018 
	C1310.220215,256.617859 1309.276733,257.109314 1308.686035,257.873413 
	C1303.653687,264.383209 1295.461060,265.114716 1289.996338,259.482239 
	C1285.550659,254.900040 1285.644531,247.890518 1290.213013,243.298096 
	C1295.728882,237.753342 1300.859253,237.568069 1306.293335,242.833466 
	C1307.791626,244.285324 1309.047852,245.987061 1310.707520,247.287079 
	C1311.000000,249.700012 1311.000000,252.400024 1311.000000,255.550018 
M1300.538818,247.410904 
	C1299.041992,247.197159 1297.545288,246.983414 1296.115234,246.228653 
	C1295.757080,245.899353 1295.399048,245.570053 1294.302490,245.020020 
	C1290.959595,245.864426 1289.030151,247.921677 1289.014893,251.450470 
	C1288.994751,256.078339 1291.944336,258.856171 1295.799438,260.088409 
	C1298.196899,260.854736 1301.118530,259.981140 1304.987427,259.782959 
	C1301.303345,257.052002 1299.134155,255.443954 1296.975586,252.987350 
	C1296.038330,252.996628 1295.101196,253.005890 1294.011597,252.155060 
	C1294.059448,250.702866 1294.107300,249.250687 1294.728149,247.926941 
	C1295.102783,248.023956 1295.477295,248.120956 1296.081787,248.870285 
	C1296.565186,249.867950 1297.048584,250.865616 1298.088501,252.016357 
	C1299.036499,252.567459 1299.984375,253.118561 1301.505249,254.197479 
	C1303.084839,254.781815 1304.664551,255.366150 1306.244141,255.950500 
	C1306.828613,254.197784 1308.032104,252.386429 1307.872681,250.704163 
	C1307.503174,246.802063 1304.973389,244.834747 1300.948608,245.038712 
	C1300.971436,245.412689 1300.994263,245.786682 1301.014160,246.635223 
	C1301.014160,246.635223 1301.160034,247.087234 1300.538818,247.410904 
z"/>
<path fill="#FFFFFF" opacity="1.000000" stroke="none" 
	d="
M660.397888,245.214691 
	C647.905273,255.256668 634.072388,260.725067 618.529114,263.205139 
	C602.339661,265.788361 586.185059,264.630707 570.015381,264.947388 
	C556.809692,265.205994 543.594971,265.000000 530.500000,265.000000 
	C530.500000,208.199783 530.500000,151.800217 530.500000,95.000000 
	C538.672363,95.000000 546.958313,95.000000 555.244263,95.000000 
	C571.906616,95.000000 588.572388,95.214218 605.230347,94.942352 
	C623.463440,94.644783 640.789856,98.766846 656.400940,107.607307 
	C663.855286,111.828575 669.875793,119.231926 675.317993,126.158630 
	C680.018433,132.141235 683.684326,139.211807 686.488098,146.321747 
	C688.699463,151.929413 689.017334,158.310623 689.975891,164.379913 
	C692.073486,177.661362 690.145447,190.752823 686.877075,203.531097 
	C682.894592,219.101379 675.507935,232.896667 662.511841,243.078827 
	C661.825989,243.616165 661.312500,244.373444 660.397888,245.214691 
M622.002686,243.504288 
	C626.021240,240.820007 630.517517,238.639832 633.974976,235.363449 
	C648.288879,221.799255 653.595764,204.235596 654.928345,185.203384 
	C655.380249,178.749298 655.890991,172.080521 654.786499,165.788681 
	C653.218079,156.853790 651.597107,147.437057 647.474426,139.544708 
	C639.114441,123.540474 625.624756,113.933830 607.146240,110.722855 
	C592.654907,108.204704 578.510559,109.137268 563.786987,109.948952 
	C563.786987,156.712570 563.786987,202.807190 563.786987,249.147003 
	C570.144165,249.456528 575.722900,249.844803 581.307434,249.968781 
	C587.470520,250.105591 593.639343,249.956268 599.804932,250.011017 
	C607.598694,250.080231 614.699585,247.719055 622.002686,243.504288 
z"/>
<path fill="#FFFFFF" opacity="1.000000" stroke="none" 
	d="
M783.212891,98.015579 
	C798.390076,93.334648 813.523926,90.785103 828.968628,92.114845 
	C844.247375,93.430290 859.056396,96.605888 872.859436,104.144028 
	C886.175781,111.416412 896.768860,121.230125 903.698425,134.491043 
	C907.428772,141.629883 909.994751,149.587051 911.780334,157.470749 
	C913.427246,164.742508 914.206726,172.452774 913.839355,179.894409 
	C912.620361,204.586411 905.244446,226.920685 886.336670,244.121155 
	C874.143372,255.213547 859.817139,262.433289 843.571655,264.826019 
	C832.717102,266.424713 821.547791,267.418610 810.636658,266.754883 
	C792.588501,265.656982 775.863281,260.087128 760.674072,249.482086 
	C744.834351,238.422882 734.906311,223.522064 730.421753,205.370087 
	C726.923889,191.211853 727.333496,176.626678 729.761475,161.957382 
	C732.888489,143.065170 741.216553,127.431183 755.017151,114.509392 
	C763.044861,106.992920 772.783142,102.249191 783.212891,98.015579 
M858.002319,238.495483 
	C859.623962,236.826263 861.474609,235.323776 862.831055,233.461395 
	C873.743713,218.479248 878.013794,201.184540 878.844849,183.134171 
	C879.619385,166.309357 876.972595,149.763687 869.664551,134.387711 
	C864.976624,124.524307 858.097778,116.185432 847.947876,111.545578 
	C834.384827,105.345467 820.302795,104.050720 805.657715,107.899979 
	C792.418701,111.379700 783.216248,119.647675 775.795227,130.603180 
	C767.998901,142.112808 764.496887,155.321274 763.300354,168.635269 
	C761.416992,189.590576 763.668762,210.416245 775.131775,228.834412 
	C781.103638,238.429718 789.172119,246.027023 800.366394,250.188889 
	C808.060730,253.049500 815.704468,252.874466 823.521729,253.017792 
	C836.899902,253.263031 848.254395,248.712738 858.002319,238.495483 
z"/>
<path fill="#FFFFFF" opacity="1.000000" stroke="none" 
	d="
M959.000000,212.849548 
	C959.000000,181.716751 959.133484,151.067184 958.911987,120.420166 
	C958.851929,112.107552 957.719666,103.802673 957.041443,95.000000 
	C958.795532,95.000000 960.417480,95.000000 962.039429,95.000000 
	C985.192444,95.000000 1008.345764,94.934669 1031.498413,95.023811 
	C1046.052368,95.079842 1058.621094,99.963234 1067.293457,112.039185 
	C1070.360840,116.310410 1072.794312,121.617859 1073.668091,126.766083 
	C1075.674805,138.588791 1074.318604,150.766220 1067.363770,160.444153 
	C1062.328735,167.450470 1055.037720,173.487640 1046.153076,176.400635 
	C1041.619873,177.886948 1037.106567,179.434402 1031.719116,181.244995 
	C1052.160645,209.096710 1072.439453,236.726700 1092.955200,264.679474 
	C1091.723999,264.787689 1090.516479,264.983704 1089.308838,264.986053 
	C1077.506958,265.009186 1065.703125,265.103546 1053.905396,264.883911 
	C1052.214478,264.852417 1049.886230,263.697968 1048.982544,262.321564 
	C1041.499268,250.924103 1034.447998,239.241867 1026.913330,227.879700 
	C1023.216492,222.304825 1018.572205,217.366516 1014.713013,211.889099 
	C1008.979736,203.751984 1003.680725,195.308350 997.918884,187.192474 
	C996.648376,185.402756 994.214600,184.438904 991.500000,182.516571 
	C991.500000,210.960266 991.500000,237.817627 991.500000,264.499268 
	C980.204529,264.499268 968.798950,264.499268 956.582031,264.499268 
	C957.046753,256.483185 957.593140,248.282700 957.978699,240.074661 
	C958.397217,231.164688 958.666016,222.247681 959.000000,212.849548 
M1039.998779,127.846733 
	C1036.748779,117.127502 1029.628540,110.294540 1018.533875,109.179337 
	C1009.544373,108.275726 1000.391663,108.995979 991.209839,108.995979 
	C991.209839,130.192810 991.209839,150.930969 991.209839,171.514740 
	C1004.850769,174.257446 1018.046509,174.092804 1029.531006,165.677002 
	C1038.066284,159.422333 1043.822754,143.795670 1039.998779,127.846733 
z"/>
<path fill="#FFFFFF" opacity="1.000000" stroke="none" 
	d="
M322.000000,243.866241 
	C322.000000,194.155380 322.000000,144.924652 322.000000,95.005203 
	C326.838409,95.005203 330.602417,94.804955 334.325958,95.105782 
	C335.773956,95.222763 337.488556,96.150520 338.473083,97.252647 
	C347.410675,107.257660 355.888092,117.693535 365.141205,127.391716 
	C375.830139,138.594772 387.170563,149.176071 398.222870,160.032669 
	C404.658295,166.354126 411.042511,172.728333 417.522369,179.003845 
	C428.603577,189.735596 439.741730,200.408493 450.855988,211.106110 
	C451.315582,210.937439 451.775208,210.768753 452.234833,210.600067 
	C451.936249,203.970596 451.645905,197.340729 451.332764,190.711960 
	C451.263062,189.236786 451.017365,187.765564 451.014832,186.292236 
	C450.990143,171.963165 451.260193,157.627975 450.926880,143.306625 
	C450.593109,128.964874 449.659485,114.637253 449.009949,100.302475 
	C448.936432,98.679893 449.000000,97.051102 449.000000,95.215378 
	C456.432159,95.215378 463.503265,95.215378 470.151306,95.215378 
	C469.612610,152.096130 469.075287,208.828537 468.533813,266.000000 
	C466.546906,266.000000 464.426178,265.892883 462.320526,266.025238 
	C459.211945,266.220642 457.206207,265.027344 454.930389,262.677582 
	C439.686279,246.938568 424.113068,231.518829 408.705719,215.937088 
	C404.043152,211.221756 399.701996,206.185196 394.981079,201.531616 
	C380.491333,187.248444 365.922485,173.044876 351.305145,158.892181 
	C347.888855,155.584473 344.159546,152.600067 339.456787,148.490402 
	C340.217865,187.826813 340.960999,226.237274 341.710938,264.999207 
	C336.293335,264.999207 329.818787,264.937164 323.346344,265.026031 
	C320.225922,265.068878 319.755280,263.288971 320.044098,260.815552 
	C320.685272,255.324570 321.346771,249.835953 322.000000,243.866241 
z"/>
<path fill="#FFFFFF" opacity="1.000000" stroke="none" 
	d="
M40.000000,196.196640 
	C40.000000,219.234604 40.000000,241.798386 40.000000,264.499603 
	C29.428528,264.499603 18.032570,264.499603 6.320121,264.499603 
	C6.320121,208.526581 6.320121,152.128296 6.320121,95.217163 
	C7.449708,95.155289 8.866933,95.010918 10.284250,95.009995 
	C32.279209,94.995712 54.279282,94.710899 76.267418,95.098587 
	C91.698204,95.370659 110.448692,106.181473 116.236755,123.125725 
	C123.612480,144.717712 114.913063,170.298935 95.060776,181.086121 
	C84.432571,186.861176 73.126282,189.333954 61.302891,189.932816 
	C54.111687,190.297043 46.886986,190.000000 39.723671,190.000000 
	C39.789719,191.367783 39.894859,193.545135 40.000000,196.196640 
M39.000000,123.503304 
	C39.000000,140.948853 39.000000,158.394394 39.000000,176.143707 
	C44.385307,176.447403 49.318375,177.223770 54.177601,176.898163 
	C65.027939,176.171127 74.237946,172.119263 79.988831,162.195297 
	C85.855423,152.071686 87.712814,141.182175 84.860153,129.928268 
	C82.183434,119.368454 76.384468,110.772430 64.660622,109.089561 
	C56.289696,107.887978 47.723183,108.048981 39.000000,107.589096 
	C39.000000,113.219177 39.000000,117.861954 39.000000,123.503304 
z"/>
<path fill="#FFFFFF" opacity="1.000000" stroke="none" 
	d="
M1247.074097,265.000000 
	C1237.748535,265.000000 1237.980713,264.913055 1234.913208,256.719635 
	C1229.428711,242.071045 1223.678711,227.520676 1217.866577,212.998550 
	C1217.480347,212.033524 1215.637939,211.091736 1214.466797,211.084274 
	C1195.802002,210.965225 1177.135986,210.964859 1158.471313,211.086517 
	C1157.318970,211.094040 1155.489258,212.084167 1155.129028,213.048477 
	C1148.975220,229.517242 1143.029785,246.063736 1136.928101,262.552338 
	C1136.562500,263.540466 1135.288086,264.862305 1134.407715,264.884521 
	C1127.004272,265.071350 1119.593994,264.990936 1112.002319,264.990936 
	C1136.918579,207.007828 1165.433472,151.215912 1187.019043,92.000000 
	C1190.677002,92.000000 1194.849365,92.245903 1198.977417,91.923904 
	C1202.415405,91.655739 1203.870850,93.140335 1205.038940,96.145866 
	C1213.617310,118.216957 1222.179565,140.297043 1231.078613,162.239777 
	C1237.511108,178.100586 1244.235474,193.852234 1251.230225,209.473221 
	C1258.090088,224.792633 1265.495239,239.867249 1272.567139,255.092941 
	C1273.960327,258.092560 1274.925415,261.291046 1276.313232,265.000000 
	C1266.417114,265.000000 1256.989746,265.000000 1247.074097,265.000000 
M1162.453735,194.887741 
	C1177.906128,194.887741 1193.358643,194.887741 1209.392822,194.887741 
	C1201.706299,175.078094 1194.189941,155.707230 1186.652588,136.282333 
	C1183.480103,143.761719 1180.385132,150.965530 1177.364746,158.200409 
	C1172.379639,170.141815 1167.442505,182.103195 1162.453735,194.887741 
z"/>
<path fill="#FFFFFF" opacity="1.000000" stroke="none" 
	d="
M148.242142,252.391220 
	C146.901505,256.732819 145.769821,260.719025 144.598022,264.846527 
	C136.841980,264.846527 129.047714,264.846527 120.363617,264.846527 
	C145.363266,206.938202 173.636566,150.973572 195.480377,92.000397 
	C200.067047,92.000397 204.734070,91.827240 209.372162,92.117203 
	C210.593536,92.193558 212.355042,93.452316 212.805496,94.589264 
	C222.048935,117.919327 230.939728,141.390533 240.325729,164.662216 
	C246.897034,180.955170 253.893478,197.086136 261.084869,213.116806 
	C268.088135,228.728119 275.601074,244.110443 282.825104,259.623657 
	C283.485138,261.041077 283.671417,262.679138 284.285431,265.000000 
	C277.534485,265.000000 271.159821,265.000000 264.785156,265.000000 
	C260.119995,265.000000 255.412582,264.612030 250.802094,265.114075 
	C246.576996,265.574158 245.260468,263.526825 243.963074,260.115662 
	C238.115387,244.740448 231.844940,229.523483 226.188110,214.080536 
	C225.158005,211.268356 223.940704,210.985199 221.668106,210.987930 
	C203.673950,211.009659 185.679413,211.055847 167.685959,210.940475 
	C164.952255,210.922958 163.865738,211.804703 162.906967,214.407333 
	C158.262756,227.014420 153.300598,239.504364 148.242142,252.391220 
M190.034821,147.643204 
	C183.595886,163.259903 177.156952,178.876602 170.575577,194.838776 
	C186.717499,194.838776 202.118912,194.838776 217.626053,194.838776 
	C210.132721,175.409958 202.707550,156.157867 195.001480,136.177444 
	C193.280319,140.316223 191.890686,143.657761 190.034821,147.643204 
z"/>
<path fill="#FFFFFF" opacity="1.000000" stroke="none" 
	d="
M780.000000,30.976818 
	C780.216187,27.643751 780.432434,24.776539 780.648682,21.909325 
	C781.434204,21.900518 782.219788,21.891712 783.005310,21.882906 
	C784.000122,29.675022 784.994934,37.467140 786.064087,45.841934 
	C788.242798,45.841934 790.442383,45.841934 793.002075,45.841934 
	C793.002075,48.131981 793.002075,49.888081 793.002075,51.991905 
	C797.793213,51.991905 802.227173,51.991905 806.822510,51.991905 
	C806.822510,53.783665 806.822510,55.198147 806.822510,55.917709 
	C805.260925,57.037933 804.138245,57.843273 803.015625,58.648617 
	C804.379272,59.098602 805.912842,60.189449 807.075439,59.881168 
	C810.913635,58.863377 814.617798,57.339951 818.191406,56.075073 
	C817.764038,54.439182 817.060608,52.979057 817.050476,51.514133 
	C816.962830,38.855350 816.854309,26.192225 817.156799,13.540066 
	C817.202209,11.641034 818.996948,9.374095 820.610474,8.032782 
	C822.369324,6.570652 824.793091,5.779420 827.044128,5.064474 
	C832.198669,3.427335 833.533813,4.153208 833.945007,9.408345 
	C834.651428,18.434427 834.992615,27.489086 835.496399,36.702042 
	C854.156128,29.280434 873.222351,22.312202 893.851318,20.201822 
	C893.851318,18.226204 893.851318,15.947438 893.851318,12.930509 
	C889.952332,13.627742 885.964905,15.284032 882.326477,14.713754 
	C878.998901,14.192184 876.048706,11.262691 872.042480,8.860892 
	C879.664185,7.102514 886.350098,5.347425 893.128296,4.090722 
	C896.267029,3.508796 898.389404,4.893260 898.061523,8.785018 
	C897.768860,12.258338 897.878174,15.782723 898.075623,19.269535 
	C898.133789,20.297029 898.852966,21.801802 899.684265,22.183210 
	C903.625427,23.991364 902.496277,27.412333 901.507935,29.729094 
	C898.609558,36.523533 894.924500,42.977501 891.789856,49.678135 
	C890.242737,52.985313 888.902771,56.462723 888.042725,60.002502 
	C886.300049,67.174446 888.131104,70.493828 894.739197,74.387131 
	C896.362854,75.343742 897.442322,77.224007 899.336914,79.298126 
	C884.509033,81.560341 754.645630,80.305382 751.807922,77.888283 
	C754.115906,76.443504 756.347290,75.046684 758.160645,73.911568 
	C755.871155,69.539253 753.619446,65.239189 750.929260,60.101543 
	C755.304321,60.101543 758.554077,60.101543 761.803894,60.101543 
	C761.981323,59.687153 762.158813,59.272762 762.336243,58.858372 
	C761.468750,58.238400 760.542480,57.684811 759.748840,56.981495 
	C758.780273,56.123131 757.923096,55.139008 757.017761,54.209282 
	C758.106323,53.473099 759.150574,52.195469 760.291687,52.102142 
	C763.729370,51.821003 767.204773,52.000736 771.020630,52.000736 
	C771.020630,49.855389 771.020630,48.109627 771.020630,45.995483 
	C773.467834,45.995483 775.554504,45.995483 777.655884,45.995483 
	C778.476074,40.903679 779.238037,36.173176 780.000000,30.976818 
z"/>
<path fill="#FFFFFF" opacity="1.000000" stroke="none" 
	d="
M781.008301,85.000000 
	C771.103210,84.666191 761.694580,84.370003 752.292664,83.929535 
	C751.512268,83.892982 750.777588,82.880775 750.021667,82.321861 
	C750.730103,81.881828 751.389526,81.270714 752.160706,81.049950 
	C752.930115,80.829704 753.811401,81.000084 754.643677,81.000076 
	C802.581604,80.999985 850.519592,80.990753 898.457458,81.040283 
	C900.056091,81.041939 901.654053,81.638405 903.095825,82.852119 
	C862.483765,86.092079 821.982361,84.563805 781.008301,85.000000 
z"/>
<path fill="#000000" opacity="1.000000" stroke="none" 
	d="
M1296.964844,253.835876 
	C1299.134155,255.443954 1301.303345,257.052002 1304.987427,259.782959 
	C1301.118530,259.981140 1298.196899,260.854736 1295.799438,260.088409 
	C1291.944336,258.856171 1288.994751,256.078339 1289.014893,251.450470 
	C1289.030151,247.921677 1290.959595,245.864426 1294.532349,245.387283 
	C1294.559814,246.435867 1294.357544,247.117172 1294.155151,247.798492 
	C1294.107300,249.250687 1294.059448,250.702866 1294.020142,252.922485 
	C1294.088013,254.332657 1294.147461,254.975403 1294.186401,255.396637 
	C1295.158203,254.850723 1296.061523,254.343292 1296.964844,253.835876 
z"/>
<path fill="#000000" opacity="1.000000" stroke="none" 
	d="
M1301.017090,246.160660 
	C1300.994263,245.786682 1300.971436,245.412689 1300.948608,245.038712 
	C1304.973389,244.834747 1307.503174,246.802063 1307.872681,250.704163 
	C1308.032104,252.386429 1306.828613,254.197784 1306.244141,255.950500 
	C1304.664551,255.366150 1303.084839,254.781815 1301.275024,253.620056 
	C1301.173218,252.641235 1301.301636,252.239822 1301.785156,251.879883 
	C1302.372803,250.623795 1302.605469,249.326233 1302.869995,247.761566 
	C1302.608887,247.313110 1302.315918,247.131760 1302.011963,246.975830 
	C1302.000977,247.001266 1302.049072,246.973480 1301.987671,246.716492 
	C1301.623169,246.359909 1301.320190,246.260284 1301.017090,246.160660 
z"/>
<path fill="#FF0404" opacity="1.000000" stroke="none" 
	d="
M1297.531982,251.863281 
	C1297.048584,250.865616 1296.565186,249.867950 1296.069336,248.189240 
	C1296.053955,247.262039 1296.051270,247.015854 1296.048462,246.769669 
	C1297.545288,246.983414 1299.041992,247.197159 1301.078369,247.273666 
	C1301.618042,247.136429 1302.049072,246.973480 1302.049072,246.973480 
	C1302.049072,246.973480 1302.000977,247.001266 1301.948730,247.202591 
	C1301.896362,247.403915 1301.942261,247.872559 1301.789185,248.116196 
	C1301.239746,249.216949 1300.843384,250.074051 1299.923096,250.978241 
	C1298.776611,251.304642 1298.154297,251.583954 1297.531982,251.863281 
z"/>
<path fill="#FF4949" opacity="1.000000" stroke="none" 
	d="
M1297.810303,251.939819 
	C1298.154297,251.583954 1298.776611,251.304642 1300.159912,251.028015 
	C1301.191650,251.236298 1301.361328,251.505539 1301.430054,251.838409 
	C1301.301636,252.239822 1301.173218,252.641235 1300.988525,253.356140 
	C1299.984375,253.118561 1299.036499,252.567459 1297.810303,251.939819 
z"/>
<path fill="#FF4242" opacity="1.000000" stroke="none" 
	d="
M1296.081787,246.499161 
	C1296.051270,247.015854 1296.053955,247.262039 1295.954346,247.863083 
	C1295.477295,248.120956 1295.102783,248.023956 1294.441650,247.862717 
	C1294.357544,247.117172 1294.559814,246.435867 1294.901611,245.497650 
	C1295.399048,245.570053 1295.757080,245.899353 1296.081787,246.499161 
z"/>
<path fill="#FF4B4B" opacity="1.000000" stroke="none" 
	d="
M1296.970215,253.411606 
	C1296.061523,254.343292 1295.158203,254.850723 1294.186401,255.396637 
	C1294.147461,254.975403 1294.088013,254.332657 1294.096313,253.352539 
	C1295.101196,253.005890 1296.038330,252.996628 1296.970215,253.411606 
z"/>
<path fill="#FF5151" opacity="1.000000" stroke="none" 
	d="
M1301.987671,246.716492 
	C1302.049072,246.973480 1301.618042,247.136429 1301.389038,247.111832 
	C1301.160034,247.087234 1301.014160,246.635223 1301.015625,246.397949 
	C1301.320190,246.260284 1301.623169,246.359909 1301.987671,246.716492 
z"/>
<path fill="#000000" opacity="1.000000" stroke="none" 
	d="
M621.724121,243.769440 
	C614.699585,247.719055 607.598694,250.080231 599.804932,250.011017 
	C593.639343,249.956268 587.470520,250.105591 581.307434,249.968781 
	C575.722900,249.844803 570.144165,249.456528 563.786987,249.147003 
	C563.786987,202.807190 563.786987,156.712570 563.786987,109.948952 
	C578.510559,109.137268 592.654907,108.204704 607.146240,110.722855 
	C625.624756,113.933830 639.114441,123.540474 647.474426,139.544708 
	C651.597107,147.437057 653.218079,156.853790 654.786499,165.788681 
	C655.890991,172.080521 655.380249,178.749298 654.928345,185.203384 
	C653.595764,204.235596 648.288879,221.799255 633.974976,235.363449 
	C630.517517,238.639832 626.021240,240.820007 621.724121,243.769440 
z"/>
<path fill="#000000" opacity="1.000000" stroke="none" 
	d="
M857.751831,238.747223 
	C848.254395,248.712738 836.899902,253.263031 823.521729,253.017792 
	C815.704468,252.874466 808.060730,253.049500 800.366394,250.188889 
	C789.172119,246.027023 781.103638,238.429718 775.131775,228.834412 
	C763.668762,210.416245 761.416992,189.590576 763.300354,168.635269 
	C764.496887,155.321274 767.998901,142.112808 775.795227,130.603180 
	C783.216248,119.647675 792.418701,111.379700 805.657715,107.899979 
	C820.302795,104.050720 834.384827,105.345467 847.947876,111.545578 
	C858.097778,116.185432 864.976624,124.524307 869.664551,134.387711 
	C876.972595,149.763687 879.619385,166.309357 878.844849,183.134171 
	C878.013794,201.184540 873.743713,218.479248 862.831055,233.461395 
	C861.474609,235.323776 859.623962,236.826263 857.751831,238.747223 
z"/>
<path fill="#000000" opacity="1.000000" stroke="none" 
	d="
M1039.999512,128.278152 
	C1043.822754,143.795670 1038.066284,159.422333 1029.531006,165.677002 
	C1018.046509,174.092804 1004.850769,174.257446 991.209839,171.514740 
	C991.209839,150.930969 991.209839,130.192810 991.209839,108.995979 
	C1000.391663,108.995979 1009.544373,108.275726 1018.533875,109.179337 
	C1029.628540,110.294540 1036.748779,117.127502 1039.999512,128.278152 
z"/>
<path fill="#000000" opacity="1.000000" stroke="none" 
	d="
M39.000000,123.004013 
	C39.000000,117.861954 39.000000,113.219177 39.000000,107.589096 
	C47.723183,108.048981 56.289696,107.887978 64.660622,109.089561 
	C76.384468,110.772430 82.183434,119.368454 84.860153,129.928268 
	C87.712814,141.182175 85.855423,152.071686 79.988831,162.195297 
	C74.237946,172.119263 65.027939,176.171127 54.177601,176.898163 
	C49.318375,177.223770 44.385307,176.447403 39.000000,176.143707 
	C39.000000,158.394394 39.000000,140.948853 39.000000,123.004013 
z"/>
<path fill="#000000" opacity="1.000000" stroke="none" 
	d="
M1162.469482,194.471954 
	C1167.442505,182.103195 1172.379639,170.141815 1177.364746,158.200409 
	C1180.385132,150.965530 1183.480103,143.761719 1186.652588,136.282333 
	C1194.189941,155.707230 1201.706299,175.078094 1209.392822,194.887741 
	C1193.358643,194.887741 1177.906128,194.887741 1162.469482,194.471954 
z"/>
<path fill="#000000" opacity="1.000000" stroke="none" 
	d="
M190.267944,147.321259 
	C191.890686,143.657761 193.280319,140.316223 195.001480,136.177444 
	C202.707550,156.157867 210.132721,175.409958 217.626053,194.838776 
	C202.118912,194.838776 186.717499,194.838776 170.575577,194.838776 
	C177.156952,178.876602 183.595886,163.259903 190.267944,147.321259 
z"/>
<path fill="#FFFFFF" opacity="1.000000" stroke="none" 
	d="
M1301.785156,251.879883 
	C1301.361328,251.505539 1301.191650,251.236298 1300.684082,250.980927 
	C1300.843384,250.074051 1301.239746,249.216949 1302.006836,248.191864 
	C1302.377686,248.023880 1302.838257,248.028687 1302.838135,248.028687 
	C1302.605469,249.326233 1302.372803,250.623795 1301.785156,251.879883 
z"/>
<path fill="#FF5151" opacity="1.000000" stroke="none" 
	d="
M1302.870117,247.761566 
	C1302.838257,248.028687 1302.377686,248.023880 1302.159912,247.948212 
	C1301.942261,247.872559 1301.896362,247.403915 1301.959717,247.177155 
	C1302.315918,247.131760 1302.608887,247.313110 1302.870117,247.761566 
z"/>
</svg>